/* XPM */
static char *_39f988af1f74a6cbebd2b7a87074693S1wN5gCaTaKpuLfA[] = {
/* columns rows colors chars-per-pixel */
"48 48 7 1 ",
"  c None",
". c #352E1D",
"X c #6D491D",
"o c #275D4E",
"O c #40BF40",
"+ c #AC8D25",
"@ c #91E26A",
/* pixels */
"                        @@                      ",
"             oo   ooo OO@OO    @@               ",
"           oo     o@@OOOO@O@ @ @@@              ",
"         o ooOO OOoo@O@@OOO@@@@ @ @             ",
"         ooooOOOOOoOOO@@@OO@@@@@OO@             ",
"          ooooO@@OOOOOOOOOO@OO@@@O @@           ",
"         ooOOoO@OOOOOOOOOOO@OO@@@OOO@@          ",
"         ooOOOOOOOO@@OOOOO@@@O@OO@@@@@          ",
"        oooooOOO@@@OO@@OoOOOOOOO@@@@@           ",
"       o ooO@OOOO@@@@@@OOoO@OOOO@@@@@@@         ",
"       o ooO@OO@O@@@@@@OOoOOOOOOO@O@@@@ @       ",
"       ooooo@OOO@@@@@@@@OOOO@@@O@@OOOO@@@       ",
"     ooOooOOOOOO@@O@OO@@OOOOO@@@@@@@@@@@        ",
"     oOOOoooOOOOOOO@@O@OOOOOOOOO@@@@@@@@@@@     ",
"      ooooo@@OOOOOOOOO@@@OOOOO@OOO@@@@@O@ @     ",
"      ooOoO@@oOOOO@OOOOO@OOOOOO@@@@@@@@OO@@     ",
"     oooOOOoooOoOO@@@OOOOOoooOOOOO@@O@@@@@@     ",
"     ooOOOooOOooOOOOOOOOooooooOOO@@OO@@@@@      ",
"     ooOoooooooooOOOOOOOoooooOoOOO@O@@@@@@@@    ",
"     oooooooooOOoOOOOOOOOooooooO@OOOO@@OO@@@    ",
"      ooooOoooooooOOooOoooooooo@ooOOO@O@@O@@    ",
"      ooooOoOooooooooooooooOOoooooOoOOOO@O@     ",
"     oooooOOOooooooooooooOOOOOoooOOOOOOOOO      ",
"     ooooooooooooooOoooooooOoOooooOOOooO OO     ",
"      ooooooooooooooooooooooOooooooooooo O      ",
"      o oooooooooOOOOooooooooooooooooOooo       ",
"       ooooooooooooOOOoooooooooooooOoOOo        ",
"       oooooooooooOOoOoooooooooooooOOOooo       ",
"       ooooooooooooooooooooooooooooooo          ",
"      oooooooooooooooooooooooooooooooooo        ",
"          ooooooooooooo   oooooooooo            ",
"         oo  ooooooooo     . .oooooo            ",
"                ...+ o     ....   o             ",
"                ...X      ....                  ",
"                 ..X+    ....                   ",
"                 ...XX  ....                    ",
"                 .....X....                     ",
"                  .........                     ",
"                  ........X                     ",
"                  ....XX.X+                     ",
"                   ....X.XX                     ",
"                   ....X.X+                     ",
"                   ....X..+                     ",
"                   ......X+X                    ",
"                  .......X++X                   ",
"                 ........XX                     ",
"                ........XX.+                    ",
"                    ...   .X+                   "
};
